<?xml version="1.0" encoding="utf-8"?>
<!-- Svg Vector Icons : http://www.onlinewebfonts.com/icon -->
<!DOCTYPE svg PUBLIC "-//W3C//DTD SVG 1.1//EN" "http://www.w3.org/Graphics/SVG/1.1/DTD/svg11.dtd">
<svg version="1.1" xmlns="http://www.w3.org/2000/svg" xmlns:xlink="http://www.w3.org/1999/xlink" width="20px" height="20px" x="4px" y="4px" viewBox="0 0 1000 1000" enable-background="new 0 0 1000 1000" xml:space="preserve">
<metadata> Svg Vector Icons : http://www.onlinewebfonts.com/icon </metadata>
<g><path d="M986.4,969.5L745,728.2l0,0c72.4-76.4,117.2-179.3,117.2-292.6c0-235-191.2-426.1-426.1-426.1C201.1,9.5,10,200.6,10,435.6s191.1,426.1,426.1,426.1c112.8,0,215.3-44.4,291.5-116.3L969,986.9c4.8,4.8,12.6,4.8,17.4,0C991.2,982,991.2,974.3,986.4,969.5z M436.1,837.2c-221.8,0-401.5-179.8-401.5-401.5S214.3,34.1,436.1,34.1c221.8,0,401.5,179.8,401.5,401.5S657.8,837.2,436.1,837.2z"/></g>
</svg>