<?xml version="1.0" encoding="utf-8"?>
<!-- Svg Vector Icons : http://www.onlinewebfonts.com/icon -->
<!DOCTYPE svg PUBLIC "-//W3C//DTD SVG 1.1//EN" "http://www.w3.org/Graphics/SVG/1.1/DTD/svg11.dtd">
<svg version="1.1" xmlns="http://www.w3.org/2000/svg" xmlns:xlink="http://www.w3.org/1999/xlink" width="20px" height="20px" x="0px" y="0px" viewBox="0 0 1000 1000" enable-background="new 0 0 1000 1000" xml:space="preserve">
<metadata> Svg Vector Icons : http://www.onlinewebfonts.com/icon </metadata>
<g><path d="M979.4,914.1L783.3,713.4c-4.6-4.6-13.7-9.1-25.1-13.7c61.6-73,100.4-168.8,100.4-273.7c0-234.9-189.3-424.3-424.3-424.3C199.3,1.7,10,191.1,10,426s189.3,424.3,424.3,424.3c102.6,0,198.4-36.5,271.4-98.1c4.6,9.1,9.1,18.2,11.4,22.8l184.8,209.9c16,18.2,47.9,18.2,68.4-2.3C990.8,962,997.7,932.4,979.4,914.1z M434.3,800.1C229,800.1,60.2,631.3,60.2,426C60.2,220.7,229,51.9,434.3,51.9c205.3,0,374.1,168.8,374.1,374.1C808.3,631.3,639.6,800.1,434.3,800.1z"/></g>
</svg>